<svg width="46" height="48" viewBox="0 0 46 48" fill="none" xmlns="http://www.w3.org/2000/svg">
<path d="M23.408 0.831997C27.9307 0.831997 31.9413 1.94133 35.44 4.16C38.9387 6.336 41.5413 9.06667 43.248 12.352C44.9547 15.6373 45.808 19.0933 45.808 22.72C45.808 27.1573 44.848 30.592 42.928 33.024C41.008 35.4133 38.576 36.608 35.632 36.608C31.3227 36.608 28.5067 34.9227 27.184 31.552C25.5627 33.5147 23.4507 34.496 20.848 34.496C18.1173 34.496 15.856 33.5147 14.064 31.552C12.3147 29.5467 11.44 27.0293 11.44 24C11.44 20.9707 12.3147 18.4747 14.064 16.512C15.856 14.5067 18.1173 13.504 20.848 13.504C23.152 13.504 25.0933 14.2933 26.672 15.872V14.208H33.52V28.992C33.52 32.1067 34.7573 33.664 37.232 33.664C39.0667 33.664 40.5387 32.7467 41.648 30.912C42.8 29.0773 43.376 26.3467 43.376 22.72C43.376 17.1733 41.456 12.5013 37.616 8.704C33.776 4.90667 29.04 3.008 23.408 3.008C17.52 3.008 12.5493 5.03467 8.496 9.088C4.48533 13.0987 2.48 18.0693 2.48 24C2.48 30.0587 4.57067 35.072 8.752 39.04C12.9333 43.008 18.2027 44.992 24.56 44.992C28.5707 44.992 32.0267 44.4587 34.928 43.392V45.696C32.0693 46.6773 28.6133 47.168 24.56 47.168C17.5627 47.168 11.7387 44.9707 7.088 40.576C2.43733 36.224 0.112 30.6987 0.112 24C0.112 17.5573 2.33067 12.096 6.768 7.616C11.248 3.09333 16.7947 0.831997 23.408 0.831997ZM22.576 28.352C23.7707 28.352 24.7307 27.9467 25.456 27.136C26.224 26.3253 26.608 25.28 26.608 24C26.608 22.6773 26.224 21.632 25.456 20.864C24.7307 20.0533 23.7707 19.648 22.576 19.648C21.3387 19.648 20.336 20.0533 19.568 20.864C18.8 21.632 18.416 22.6773 18.416 24C18.416 25.28 18.8 26.3253 19.568 27.136C20.336 27.9467 21.3387 28.352 22.576 28.352Z" fill="#4685D1"/>
</svg>
