<svg width="46" height="48" fill="none" xmlns="http://www.w3.org/2000/svg"><path d="M23.408.832c4.523 0 8.533 1.11 12.032 3.328 3.499 2.176 6.101 4.907 7.808 8.192 1.707 3.285 2.56 6.741 2.56 10.368 0 4.437-.96 7.872-2.88 10.304-1.92 2.39-4.352 3.584-7.296 3.584-4.31 0-7.125-1.685-8.448-5.056-1.621 1.963-3.733 2.944-6.336 2.944-2.73 0-4.992-.981-6.784-2.944-1.75-2.005-2.624-4.523-2.624-7.552 0-3.03.875-5.525 2.624-7.488 1.792-2.005 4.053-3.008 6.784-3.008 2.304 0 4.245.79 5.824 2.368v-1.664h6.848v14.784c0 3.115 1.237 4.672 3.712 4.672 1.835 0 3.307-.917 4.416-2.752 1.152-1.835 1.728-4.565 1.728-8.192 0-5.547-1.92-10.219-5.76-14.016-3.84-3.797-8.576-5.696-14.208-5.696-5.888 0-10.859 2.027-14.912 6.08C4.486 13.098 2.48 18.069 2.48 24c0 6.059 2.09 11.072 6.272 15.04 4.181 3.968 9.45 5.952 15.808 5.952 4.01 0 7.467-.533 10.368-1.6v2.304c-2.859.981-6.315 1.472-10.368 1.472-6.997 0-12.821-2.197-17.472-6.592C2.438 36.224.112 30.699.112 24c0-6.443 2.219-11.904 6.656-16.384C11.248 3.093 16.795.832 23.408.832zm-.832 27.52c1.195 0 2.155-.405 2.88-1.216.768-.81 1.152-1.856 1.152-3.136 0-1.323-.384-2.368-1.152-3.136-.725-.81-1.685-1.216-2.88-1.216-1.237 0-2.24.405-3.008 1.216-.768.768-1.152 1.813-1.152 3.136 0 1.28.384 2.325 1.152 3.136.768.81 1.77 1.216 3.008 1.216z" fill="#4685D1"/></svg>